Patient4_TMGait_0pt3_03_right_23_EMG.mot
version=1
nRows=39
nColumns=33
inDegrees=no
endheader
time	1LAddLong	2LGlutMax	3LGlutMed	4LIliopsoas	5LSemiMemb	6LBicFemLong	7LRecFem	8LVastMed	9LVastLat	10LGasMed	11LTibAnt	12lTibPost	13LPeroneusLong	14LSol	15LExtDigLong	16LFlexDigLong	17RAddLong	18RGlutMax	19RGlutMed	20RIliopsoas	21RSemiMemb	22RBicFemLong	23RRecFem	24RVastMed	25RVastLat	26RGasMed	27RTibAnt	28RTibPost	29RPeroneusLong	30RSol	31RExtDigLong	32RFlexDigLong
44.265	0.031738	-0.012512	-0.015259	0.00885	0.006714	0.051422	-0.04303	-0.003357	0.04837	-0.013428	0.013275	-0.001984	0.010223	-0.098877	0.089417	0.006561	0.011292	-0.10269	0.050659	0.01297	-0.006561	0.006256	0.15198	-0.077362	-0.10208	0.003052	-0.19424	-0.000916	-0.26718	0.020142	-0.002136	-0.012054
44.266	0.018158	-0.014038	0.049286	-0.007782	-0.029297	0.089874	0.014801	-0.000458	-0.074921	0.000916	0.007172	0.008545	0.018463	-0.087891	0.11017	0.013123	0.006104	-0.14435	0.070038	-0.006866	0.000763	0.023193	-0.03952	0.009613	-0.13107	-0.001373	-0.09491	-0.003204	-0.19012	0.04776	-0.002441	-0.016785
44.267	0.001221	0.001831	0.039673	0.007477	-0.035553	0.066833	0.057373	0.021515	-0.18066	0.001984	-0.002747	0.000458	0.017395	-0.063019	0.11978	0.016937	-0.002136	-0.121	0.099182	-0.012207	-0.000305	0.050354	-0.18997	0.14252	-0.07309	-0.001373	-0.21164	0.000458	-0.23743	0.048523	0.000458	-0.018158
44.268	-0.032349	0.017853	0.037079	0.007782	-0.098877	0.04837	0.077667	0.021515	-0.1181	0.014191	-0.008392	0.00412	0.017548	-0.009766	0.13504	0.017548	0.004272	-0.074005	0.10925	-0.07431	0	0.039825	-0.17975	0.091095	-0.010529	-0.000763	-0.2034	-0.000305	-0.16861	0.019073	0.001068	-0.014801
44.269	-0.023651	0.071411	0.039063	0.005798	-0.11505	-0.013123	0.095367	0.060577	-0.061493	0.032043	-0.042267	0.001678	0.011292	-0.014191	0.10071	0.023804	-0.004578	-0.088806	0.2681	-0.056915	-0.001678	0.056458	-0.058136	0.044861	0.004578	-0.006561	-0.20203	-0.000305	-0.00824	0.023193	-0.002289	-0.019989
44.27	-0.056	0.10849	-0.028687	0.006714	-0.021515	-0.093689	0.094147	0.013733	-0.02655	0.037079	-0.015411	0.005035	-0.024109	-0.014191	0.075684	0.023804	0.007172	-0.076752	0.052032	0.012817	-0.01358	0.06012	-0.040741	-0.12787	-0.052795	-0.000458	-0.21042	-0.00061	-0.036163	-0.037689	-0.00412	-0.014648
44.271	-0.033875	0.083923	-0.001984	0.025787	-0.043793	-0.16815	0.10803	0.031281	0.002747	0.055389	0.025177	0.003204	-0.040436	-0.018768	0.051117	0.015869	0.012817	-0.06958	-0.084076	0.058899	-0.01709	0.027618	0.15289	-0.2562	-0.18646	0.005188	0.11948	-0.002441	-0.034485	-0.14862	-0.001831	-0.006714
44.272	-0.009613	0.079651	0.046234	0.016632	0.031891	-0.090637	0.10086	0.019379	-0.01709	0.016785	0.16068	0.005493	-0.013275	0.022736	0.016327	0.023041	0.01358	-0.052643	-0.036926	0.049744	-0.013733	0.011902	0.25635	-0.20172	-0.25909	0.008545	0.68832	-0.000763	0.13229	-0.23651	-0.000916	-0.003815
44.273	0.010529	0.072632	0.032043	0.023499	0.076752	-0.018005	0.053558	0.020142	-0.046539	-0.059662	0.19486	0.005798	0.076447	0.040131	-0.060883	0.029602	0.023346	0.024567	-0.084076	-0.023041	-0.021057	0.025177	0.17151	-0.13596	0.083771	0.013123	0.69794	0.002899	-0.05722	-0.23636	-0.000305	-0.005341
44.274	0.006714	0.042725	-0.007019	0.013123	0.079346	0.004883	-0.019073	0.010834	-0.16693	-0.063171	0.27817	0.00061	0.097656	0.073395	-0.10376	0.027618	0.018158	-0.090332	-0.054169	-0.052643	-0.014343	0.050812	0.032959	0.10696	0.30731	0.00824	0.56763	0.000763	-0.17563	-0.16586	-0.002594	-0.007782
44.275	0.036163	0.053253	0.045166	0.018768	0.10666	0.029755	-0.087128	-0.005951	-0.060883	-0.032349	0.11063	0.008087	0.008545	0.075836	-0.037384	0.027008	-0.006409	-0.096741	0.080261	-0.046082	-0.001984	0.032349	-0.27603	0.37796	0.40726	0.001373	0.063324	0.001068	-0.39459	-0.14664	-0.004272	-0.007019
44.276	0.05188	0.044403	0.063324	0.009308	0.095215	0.051727	-0.16342	-0.00351	0.072174	0.001984	-0.32318	0.013885	0.006714	0.060425	-0.046082	0.022583	-0.003052	-0.090027	0.040436	-0.022278	-0.005493	0.018616	-0.45624	0.46906	0.37201	0.006409	-1.1456	-0.00351	0.091858	-0.14267	-0.001526	-0.001068
44.277	0.050659	0.078278	0.063019	-0.011444	0.06958	0.077209	-0.11002	-0.004883	0.17929	0.007935	-0.26062	0.015869	-0.036011	0.046844	-0.046844	0.028687	0.003967	-0.094452	-0.18951	0.037384	-0.010529	0.001984	-0.46112	0.31967	0.2832	-0.001831	-0.21744	-0.002747	0.14877	-0.046692	-0.002136	-0.010223
44.278	0.029755	0.11337	0.011444	-0.016479	0.032043	0.12665	-0.05249	-0.001678	0.27283	-0.016022	-0.05127	0.022888	0.067444	-0.018921	-0.15823	0.024261	-0.001526	-0.037384	0.018616	0.018921	-0.013428	0.011139	-0.20172	0.10086	-0.079803	0.000763	0.14191	0	-0.44296	0.06546	-0.00061	-0.009155
44.279	0.015869	0.058289	-0.010376	-0.0177	0.034637	0.16174	-0.009308	-0.001678	0.35233	-0.014038	-0.08667	0.008698	0.10208	-0.098419	0.003357	0.024109	0.003967	-0.032349	0.52231	-0.051117	-0.009613	0.036163	0.064392	-0.080566	-0.44754	-0.007935	-0.20462	0.003967	-0.38986	0.066681	-0.00351	-0.005951
44.28	0.00061	0.041962	-0.031433	-0.015717	0.02594	0.15823	0.063171	-0.001221	0.25238	0.007629	0.016022	0.013275	0.020294	-0.023193	0.18875	0.017548	0.003662	-0.054474	0.52643	-0.043945	0.006561	0.057526	0.14648	-0.094147	-0.34317	-0.007324	-0.3331	0.000305	0.025177	0.035553	-0.002441	-0.019379
44.281	-0.002899	-0.018158	-0.06012	0.003204	-0.007172	0.14282	0.04776	0.005646	0.01297	0.016632	0.10819	0.004272	-0.028992	0.002136	0.33585	0.014343	0.009155	-0.11063	-0.081635	-0.009003	0.007782	0.017395	0.18204	-0.081024	-0.10864	-0.001373	-0.17731	-0.00061	0.21439	-0.053558	-0.00412	-0.00824
44.282	-0.015106	-0.023956	-0.057831	0.039368	-0.044098	0.092316	0.00351	0.018921	-0.19974	0.031128	0.10391	0.024414	-0.04776	-0.068054	0.15366	0.023804	0.00412	-0.073547	0.02243	-0.046997	0.012512	-0.00412	0.075378	-0.11826	-0.025787	-0.005341	0.1181	0.002899	-0.049133	-0.042267	-0.000458	-0.011597
44.283	-0.010986	-0.019989	-0.055084	0.028534	-0.096893	-0.07309	-0.025024	0.020294	-0.22095	0.018311	0.077667	0.011139	-0.000153	-0.13718	0.071411	0.027924	0.014343	-0.012817	0.052795	-0.010071	0.005951	-0.015869	0.048981	-0.1181	-0.016327	-0.007019	0.095978	-0.000153	-0.16403	-0.11704	0.000305	-0.017395
44.284	-0.014801	-0.076141	-0.030975	0.015717	-0.15442	-0.1947	-0.032959	0.024719	-0.19348	-0.02121	0.062103	0.005341	0.10864	-0.072174	-0.078735	0.027771	0.010681	0.000458	0.099335	0.027771	0.014801	0.006714	0.063019	-0.042114	-0.00824	-0.003967	-0.10117	-0.009613	-0.20401	-0.12741	-0.002136	-0.023193
44.285	0	-0.054474	-0.031281	0.001526	-0.17441	-0.20279	-0.062408	0.025787	-0.16647	-0.033417	0.001221	0.019379	0.13321	0.11215	-0.039978	0.019226	0.00885	0.00061	0.035553	0.071411	0.003815	0.030212	0.017548	-0.04303	-0.028687	-0.014954	-0.19348	-0.002899	0.053558	-0.014038	0.000153	-0.020752
44.286	0.016174	-0.05249	-0.008392	0.006866	0.035858	-0.13977	-0.048676	0.01358	-0.14206	-0.025787	-0.019226	0.019836	0.11337	0.17151	-0.093842	0.002899	0.011597	0.035706	0.04303	0.010529	-0.005493	0.012817	0.048676	-0.016632	-0.03479	-0.004425	-0.50156	-0.001068	0.42343	-0.002441	-0.001068	-0.017548
44.287	0.029297	-0.090485	-0.015717	0.010223	0.15808	0.038757	-0.025787	0.00412	-0.12894	0.003052	-0.021362	0.020599	0.048218	0.049133	-0.087891	-0.000458	0.012054	0.003967	0.52094	-0.077209	-0.011139	0.036621	-0.022125	-0.033569	-0.031128	0.006409	-0.31693	-0.000305	0.29541	-0.019531	-0.001068	-0.011139
44.288	0.018158	-0.081329	-0.051117	0.019684	0.15182	0.046844	0.011139	0.007324	-0.11688	0.009766	-0.02594	0.018005	0.027618	-0.027161	0.013733	-0.018158	0.0177	-0.084381	-0.19043	-0.059052	-0.006866	0.056	0.001373	-0.033112	-0.004272	0.001831	0.12772	-0.001068	0.059357	0.025024	-0.00351	-0.009308
44.289	0.014191	-0.097656	-0.053864	0.014191	0.12772	0.013885	0.023041	0.002899	-0.071259	-0.007324	-0.05188	0.0177	0.039063	-0.0354	0.020447	-0.024719	0.00351	-0.09613	-0.19486	0.002136	-0.024261	0.039825	0.005188	-0.007782	0.02655	-0.001526	-0.25681	0.000916	-0.053558	0.15579	0.000153	-0.015717
44.29	0.006104	-0.096588	-0.12817	0.006104	0.053101	0.031586	0.052185	0.004272	-0.017853	0.012512	-0.051117	0.018921	0.036469	-0.052185	-0.021667	-0.028992	0.015411	-0.056763	-0.21362	0.034485	-0.023804	0.052185	0.054932	0.010834	0.034943	-0.007629	-0.26642	-0.000458	-0.13931	0.16785	-0.003357	-0.016022
44.291	-0.01297	-0.049286	-0.13382	-0.00824	-0.051575	0.086517	0.094757	0.008545	-0.009155	0.020142	0.014496	0.014801	0.04837	-0.07843	-0.093842	-0.041809	0.016937	0.005341	0.097351	0.064697	-0.16617	0.013275	0.072937	0.008392	0.070801	-0.002289	-0.043945	-0.001373	0.015564	0.10529	-0.001678	-0.009155
44.292	-0.010376	-0.036163	-0.054932	0.002747	-0.08667	0.121	0.079498	0.01297	0.019989	0.024261	0.020447	0.007782	0.058136	-0.06012	-0.11765	-0.048065	0.033112	-0.016632	-0.097198	-0.059357	-0.23483	-0.022736	0.051117	-0.013885	0.040741	0.000458	0.087128	0.002594	0.30914	0.032959	-0.002289	-0.016022
44.293	-0.018463	-0.05249	0.11566	0.011444	-0.02655	0.083466	0.054474	0.021362	0.019226	0.014648	-0.027771	0.002899	0.018311	-0.043793	-0.087585	-0.035248	0.019989	-0.082245	-0.3447	-0.098114	-0.20752	0.04425	0.028839	-0.031281	0.026093	0.001221	0.084534	0	0.2179	-0.039368	0.002899	-0.009613
44.294	-0.019073	-0.046539	0.075684	0.00946	0.059967	-0.023041	-0.017548	0.021515	0.03479	0.013123	0.045776	0.004578	-0.00351	-0.041504	-0.022125	-0.029907	-0.011597	-0.07782	-0.18066	-0.099335	0.30182	0.07309	0.007935	-0.030365	0.022278	0.002594	0.12665	0.000763	-0.14755	-0.12695	-0.001373	0.011902
44.295	-0.007935	-0.058441	0.04776	0.020599	0.03891	-0.078888	-0.007782	0.026703	0.070496	0.011139	0.059662	0.005646	0.005188	-0.063782	0.001678	-0.017395	-0.00412	-0.03067	0.22369	-0.032043	0.16296	0.070343	0.016174	-0.023804	0.009918	0.000458	0.045471	-0.002441	-0.65384	-0.079193	-0.001678	-0.006409
44.296	0.015106	0.007324	0.017548	0.005493	0.003967	-0.10788	0.032196	0.022888	0.019836	0.021515	0.10254	0.002594	-0.022736	-0.021362	0.36423	-0.012665	-0.011139	-0.049591	0.47348	0.014648	0.12253	0.038147	0.004272	-0.009613	0.014496	-0.005646	-0.10437	0.000763	-0.72098	0.062714	0.010071	-0.009003
44.297	0.023041	-0.012512	-0.010834	-0.00473	0.018616	-0.11643	0.030518	0.021515	0.00824	-0.014343	0.005951	0.00824	-0.01297	0.025787	0.65857	0.003052	0.005493	-0.092621	0.45685	0.16785	0.092773	0.032806	0.035858	0.005646	0.000916	-0.000916	0.028076	0.002594	-0.65277	0.10925	-0.002441	-0.012207
44.298	0.054626	0.022583	0.021667	-0.005798	-0.001984	-0.092926	0.053253	-0.000763	0.045776	-0.028229	-0.12756	0.006256	0.043335	0.025635	-0.043182	0.005035	0.01297	-0.10941	-0.028992	0.082245	0.076599	0.019073	-0.030518	0.014496	0.017548	0.003815	0.04837	0.00061	0.49286	0.16052	-0.002136	-0.00946
44.299	0.045013	0.021515	-0.016785	-0.001678	0.005035	-0.007935	0.043488	0.003052	0.05661	-0.023346	-0.094757	0.001678	0.061798	0.019836	-0.36148	-0.002747	0.022888	-0.096436	-0.2594	0.013275	0.00473	0.02594	-0.041809	0.016479	0.015411	0.001221	0.11444	0.000763	0.50674	0.23148	-0.002594	-0.01709
44.3	0.031738	0.045776	-0.010529	0.006866	0.021057	-0.009155	0.00412	0.009308	0.059662	0.017242	-0.053558	-0.005951	0.003052	0.005493	-0.22766	-0.001068	0.037384	-0.074463	-0.11673	0.030518	-0.073242	0.075836	-0.02594	-0.055084	-0.009766	-0.000153	0.040283	0.000916	0.61371	0.12878	-0.003052	-0.014954
44.301	0.035095	-0.004883	-0.042725	0.005493	0.008545	0.001984	-0.05249	-0.001526	0.075378	0.021515	-0.046082	-0.018311	-0.002899	0.008698	-0.20569	-0.017395	0.005188	-0.15411	0.052338	0.10376	-0.016022	0.076294	-0.002136	-0.056152	0.012207	0.001373	-0.00946	0.001526	-0.041504	-0.047302	-0.002747	-0.017395
44.302	0.035095	-0.05249	-0.000458	0.00946	-0.019379	0.035706	-0.12833	-0.000305	0.063629	-0.002899	-0.034027	-0.020294	-0.003052	0.09079	-0.13916	-0.020752	-0.011597	-0.19882	-0.039215	0.071564	-0.076752	0.071869	0.02182	-0.11643	-0.005188	-0.001984	0.046082	0.00824	0.011292	-0.039673	0.001831	-0.011292
44.303	0.009918	-0.033264	0.01297	0.000305	-0.050201	0.031738	-0.17746	0.013885	0.096741	-0.013275	-0.033417	-0.025787	-0.004272	0.08728	-0.045929	-0.006714	-0.02182	-0.12131	0.23438	0.10178	0.07843	-0.006866	-0.005035	0.033417	0.002136	0.001984	0.071259	0.003204	-0.12054	-0.04715	-0.003357	-0.015411
